<svg width="100" height="100" viewBox="0 0 100 100" fill="none" xmlns="http://www.w3.org/2000/svg">
<path d="M94.3587 61.8856C94.9869 62.0539 95.6341 61.6814 95.7867 61.0492C97.436 54.2151 97.5356 47.0931 96.0718 40.2067C94.5264 32.936 91.2822 26.1343 86.6043 20.3577C81.9265 14.5811 75.948 9.99364 69.1575 6.97033C62.3671 3.94701 54.9575 2.57373 47.5345 2.96274C40.1116 3.35176 32.8862 5.49204 26.4489 9.20859C20.0117 12.9251 14.5454 18.1124 10.497 24.3464C6.44869 30.5803 3.93319 37.6838 3.15622 45.0762C2.42031 52.0779 3.26382 59.1505 5.61842 65.7748C5.83623 66.3875 6.51884 66.6904 7.12598 66.4573C7.73312 66.2243 8.03481 65.5436 7.8178 64.9305C5.59592 58.6534 4.80133 51.9545 5.49839 45.3224C6.23651 38.2996 8.62623 31.5513 12.4722 25.629C16.3181 19.7068 21.5111 14.7789 27.6265 11.2481C33.7418 7.71742 40.606 5.68416 47.6578 5.31459C54.7096 4.94502 61.7487 6.24964 68.1996 9.12179C74.6506 11.9939 80.3302 16.3521 84.7741 21.8398C89.218 27.3276 92.3 33.7892 93.7682 40.6964C95.1547 47.2192 95.0647 53.9646 93.5111 60.4395C93.3594 61.0719 93.7306 61.7173 94.3587 61.8856Z" fill="black"/>
<path d="M97.3304 37.3179C97.8638 37.1749 98.1814 36.6263 98.0278 36.0958C95.1888 26.289 89.4126 17.5777 81.466 11.1427C73.2602 4.49774 63.1613 0.621139 52.6168 0.0685238C42.0723 -0.484092 31.6235 2.31564 22.7681 8.06647C14.1923 13.6356 7.53719 21.6954 3.68867 31.1516C3.48048 31.6632 3.73896 32.242 4.25456 32.44L9.38925 34.411C9.90486 34.6089 10.4822 34.3508 10.6922 33.84C13.9719 25.8622 19.6055 19.063 26.8528 14.3565C34.38 9.4683 43.2615 7.08852 52.2243 7.55825C61.1871 8.02797 69.7711 11.3231 76.7461 16.9713C83.4618 22.4095 88.3538 29.7604 90.7817 38.0373C90.9371 38.5673 91.4843 38.8843 92.0178 38.7414L97.3304 37.3179Z" fill="black"/>
<path d="M67.9854 36.3725C67.1853 36.0829 66.2829 36.2441 65.4918 36.8055C61.9545 39.9139 57.8937 46.4681 57.5117 55.1453C57.3493 62.2788 60.3994 68.8121 66.5296 74.5869V85.5066H69.5376C69.5376 85.5066 69.6218 38.403 69.4925 38.0775C69.2909 37.2803 68.7284 36.6413 67.9854 36.3725ZM60.5197 55.2379C60.8175 47.982 64.1172 42.5863 66.5296 39.9706V70.3289C62.4147 65.7067 60.3964 60.6365 60.5197 55.2409V55.2379ZM42.4659 59.9736V85.5066H39.458V59.9736C34.3685 59.2421 30.4341 54.9244 30.4341 49.675V37.7312C30.4341 36.907 31.1079 36.2382 31.9381 36.2382C32.7683 36.2382 33.4421 36.907 33.4421 37.7312V49.675C33.4421 53.2791 36.0289 56.2949 39.458 56.9877V37.7312C39.458 36.907 40.1318 36.2382 40.9619 36.2382C41.7921 36.2382 42.4659 36.907 42.4659 37.7312V56.9877C45.895 56.2949 48.4818 53.2791 48.4818 49.675V37.7312C48.4818 36.907 49.1556 36.2382 49.9858 36.2382C50.816 36.2382 51.4898 36.907 51.4898 37.7312V49.675C51.4898 54.9244 47.5554 59.2421 42.4659 59.9736Z" fill="black"/>
<path d="M39.2815 20.8768C39.2815 20.1806 39.1904 19.6899 39.0083 19.4047C38.8262 19.1194 38.479 18.9767 37.9667 18.9767C37.2837 18.9767 36.6747 19.262 36.1397 19.8326C35.616 20.4032 35.3542 20.9167 35.3542 21.3732V27.467H34.1589V20.8768C34.1589 20.1806 34.0679 19.6899 33.8857 19.4047C33.7036 19.1194 33.3165 18.9767 32.7246 18.9767C32.1327 18.9767 31.5692 19.2506 31.0341 19.7984C30.5105 20.3461 30.2259 20.8539 30.1804 21.3218V27.467H28.9851V18.9083H30.1804V20.8425C30.3625 20.3518 30.6983 19.8954 31.1878 19.4731C31.6773 19.0509 32.2237 18.8398 32.827 18.8398C33.4304 18.8398 33.9085 18.8968 34.2614 19.011C34.6256 19.1137 34.8818 19.2791 35.0298 19.5074C35.1777 19.7356 35.2688 19.9353 35.303 20.1065C35.3371 20.2776 35.3542 20.5173 35.3542 20.8254C35.5363 20.3347 35.8665 19.8839 36.3446 19.4731C36.8227 19.0509 37.3349 18.8398 37.8813 18.8398C38.4277 18.8398 38.866 18.8854 39.1961 18.9767C39.5263 19.068 39.771 19.1707 39.9304 19.2848C40.1011 19.399 40.2263 19.5644 40.306 19.7812C40.3971 19.9981 40.4483 20.1749 40.4597 20.3119C40.4711 20.4488 40.4768 20.6428 40.4768 20.8939V26.2516C40.4768 26.5826 40.5394 26.8393 40.6646 27.0219C40.8012 27.1931 40.9378 27.2844 41.0744 27.2958L41.2622 27.33H41.7916V27.467H40.75C40.2833 27.467 39.9247 27.3643 39.6742 27.1589C39.4352 26.9534 39.31 26.748 39.2986 26.5426L39.2815 26.2516V20.8768Z" fill="black"/>
<path d="M44.6649 23.2903C44.6649 24.7054 44.9096 25.7438 45.3991 26.4057C45.9 27.0676 46.5546 27.3985 47.3628 27.3985C48.5012 27.3985 49.5143 27.2273 50.4022 26.885L50.4534 27.0048C49.5427 27.3586 48.5125 27.5354 47.3628 27.5354C46.2244 27.5354 45.2967 27.1931 44.5795 26.5084C43.8624 25.8237 43.5038 24.7681 43.5038 23.3417C43.5038 21.9152 43.8794 20.8083 44.6308 20.0209C45.3821 19.2335 46.3383 18.8398 47.4994 18.8398C48.4329 18.8398 49.2183 19.1194 49.8558 19.6785C50.4933 20.2377 50.812 21.065 50.812 22.1606C50.812 22.2176 50.812 22.2747 50.812 22.3317H44.7161C44.682 22.6399 44.6649 22.9594 44.6649 23.2903ZM49.6509 22.1948C49.6395 21.0993 49.4289 20.2891 49.0191 19.7641C48.6093 19.2392 48.08 18.9767 47.4311 18.9767C46.7822 18.9767 46.2017 19.262 45.6894 19.8326C45.1885 20.4032 44.8698 21.1906 44.7332 22.1948H49.6509Z" fill="black"/>
<path d="M59.7893 27.467C59.3226 27.467 58.964 27.3643 58.7136 27.1589C58.4746 26.9534 58.3493 26.748 58.3379 26.5426L58.3209 26.2516V20.8768C58.3209 19.9752 58.0875 19.399 57.6208 19.1479C57.3817 19.0338 57.0858 18.9767 56.7329 18.9767C56.0043 18.9767 55.3498 19.2677 54.7692 19.8497C54.1887 20.4203 53.8984 20.9338 53.8984 21.3903V27.467H52.7031V18.9083H53.8984V20.8596C54.0919 20.3689 54.4505 19.9125 54.9741 19.4902C55.4978 19.0566 56.0726 18.8398 56.6987 18.8398C57.3248 18.8398 57.8314 18.9025 58.2184 19.0281C58.6168 19.1422 58.9071 19.3077 59.0893 19.5245C59.3739 19.8782 59.5161 20.3347 59.5161 20.8939V26.2516C59.5161 26.5826 59.5788 26.8393 59.704 27.0219C59.8406 27.1931 59.9772 27.2844 60.1138 27.2958L60.3016 27.33H60.8309V27.467H59.7893Z" fill="black"/>
<path d="M64.0815 25.4985C64.0815 26.4 64.3206 26.9763 64.7987 27.2273C65.0264 27.3414 65.3166 27.3985 65.6695 27.3985C66.3867 27.3985 67.0242 27.1246 67.582 26.5769C68.1511 26.0291 68.4585 25.5213 68.504 25.0534V18.9083H69.6993V26.2516C69.6993 26.5826 69.7619 26.8393 69.8871 27.0219C70.0237 27.1931 70.1603 27.2844 70.2969 27.2958L70.4848 27.33H71.0141V27.467H69.9725C69.5058 27.467 69.1472 27.3643 68.8968 27.1589C68.6577 26.9534 68.5325 26.748 68.5211 26.5426L68.504 26.2516V25.5156C68.2991 26.0063 67.9348 26.4684 67.4112 26.9021C66.8876 27.3243 66.3127 27.5354 65.6866 27.5354C65.0719 27.5354 64.5653 27.4784 64.1669 27.3643C63.7799 27.2387 63.501 27.0676 63.3302 26.8507C63.0342 26.497 62.8862 26.0405 62.8862 25.4813V18.9083H64.0815V25.4985Z" fill="black"/>
<path d="M39.2815 20.8768C39.2815 20.1806 39.1904 19.6899 39.0083 19.4047C38.8262 19.1194 38.479 18.9767 37.9667 18.9767C37.2837 18.9767 36.6747 19.262 36.1397 19.8326C35.616 20.4032 35.3542 20.9167 35.3542 21.3732V27.467H34.1589V20.8768C34.1589 20.1806 34.0679 19.6899 33.8857 19.4047C33.7036 19.1194 33.3165 18.9767 32.7246 18.9767C32.1327 18.9767 31.5692 19.2506 31.0341 19.7984C30.5105 20.3461 30.2259 20.8539 30.1804 21.3218V27.467H28.9851V18.9083H30.1804V20.8425C30.3625 20.3518 30.6983 19.8954 31.1878 19.4731C31.6773 19.0509 32.2237 18.8398 32.827 18.8398C33.4304 18.8398 33.9085 18.8968 34.2614 19.011C34.6256 19.1137 34.8818 19.2791 35.0298 19.5074C35.1777 19.7356 35.2688 19.9353 35.303 20.1065C35.3371 20.2776 35.3542 20.5173 35.3542 20.8254C35.5363 20.3347 35.8665 19.8839 36.3446 19.4731C36.8227 19.0509 37.3349 18.8398 37.8813 18.8398C38.4277 18.8398 38.866 18.8854 39.1961 18.9767C39.5263 19.068 39.771 19.1707 39.9304 19.2848C40.1011 19.399 40.2263 19.5644 40.306 19.7812C40.3971 19.9981 40.4483 20.1749 40.4597 20.3119C40.4711 20.4488 40.4768 20.6428 40.4768 20.8939V26.2516C40.4768 26.5826 40.5394 26.8393 40.6646 27.0219C40.8012 27.1931 40.9378 27.2844 41.0744 27.2958L41.2622 27.33H41.7916V27.467H40.75C40.2833 27.467 39.9247 27.3643 39.6742 27.1589C39.4352 26.9534 39.31 26.748 39.2986 26.5426L39.2815 26.2516V20.8768Z" stroke="black" stroke-width="0.5"/>
<path d="M44.6649 23.2903C44.6649 24.7054 44.9096 25.7438 45.3991 26.4057C45.9 27.0676 46.5546 27.3985 47.3628 27.3985C48.5012 27.3985 49.5143 27.2273 50.4022 26.885L50.4534 27.0048C49.5427 27.3586 48.5125 27.5354 47.3628 27.5354C46.2244 27.5354 45.2967 27.1931 44.5795 26.5084C43.8624 25.8237 43.5038 24.7681 43.5038 23.3417C43.5038 21.9152 43.8794 20.8083 44.6308 20.0209C45.3821 19.2335 46.3383 18.8398 47.4994 18.8398C48.4329 18.8398 49.2183 19.1194 49.8558 19.6785C50.4933 20.2377 50.812 21.065 50.812 22.1606C50.812 22.2176 50.812 22.2747 50.812 22.3317H44.7161C44.682 22.6399 44.6649 22.9594 44.6649 23.2903ZM49.6509 22.1948C49.6395 21.0993 49.4289 20.2891 49.0191 19.7641C48.6093 19.2392 48.08 18.9767 47.4311 18.9767C46.7822 18.9767 46.2017 19.262 45.6894 19.8326C45.1885 20.4032 44.8698 21.1906 44.7332 22.1948H49.6509Z" stroke="black" stroke-width="0.5"/>
<path d="M59.7893 27.467C59.3226 27.467 58.964 27.3643 58.7136 27.1589C58.4746 26.9534 58.3493 26.748 58.3379 26.5426L58.3209 26.2516V20.8768C58.3209 19.9752 58.0875 19.399 57.6208 19.1479C57.3817 19.0338 57.0858 18.9767 56.7329 18.9767C56.0043 18.9767 55.3498 19.2677 54.7692 19.8497C54.1887 20.4203 53.8984 20.9338 53.8984 21.3903V27.467H52.7031V18.9083H53.8984V20.8596C54.0919 20.3689 54.4505 19.9125 54.9741 19.4902C55.4978 19.0566 56.0726 18.8398 56.6987 18.8398C57.3248 18.8398 57.8314 18.9025 58.2184 19.0281C58.6168 19.1422 58.9071 19.3077 59.0893 19.5245C59.3739 19.8782 59.5161 20.3347 59.5161 20.8939V26.2516C59.5161 26.5826 59.5788 26.8393 59.704 27.0219C59.8406 27.1931 59.9772 27.2844 60.1138 27.2958L60.3016 27.33H60.8309V27.467H59.7893Z" stroke="black" stroke-width="0.5"/>
<path d="M64.0815 25.4985C64.0815 26.4 64.3206 26.9763 64.7987 27.2273C65.0264 27.3414 65.3166 27.3985 65.6695 27.3985C66.3867 27.3985 67.0242 27.1246 67.582 26.5769C68.1511 26.0291 68.4585 25.5213 68.504 25.0534V18.9083H69.6993V26.2516C69.6993 26.5826 69.7619 26.8393 69.8871 27.0219C70.0237 27.1931 70.1603 27.2844 70.2969 27.2958L70.4848 27.33H71.0141V27.467H69.9725C69.5058 27.467 69.1472 27.3643 68.8968 27.1589C68.6577 26.9534 68.5325 26.748 68.5211 26.5426L68.504 26.2516V25.5156C68.2991 26.0063 67.9348 26.4684 67.4112 26.9021C66.8876 27.3243 66.3127 27.5354 65.6866 27.5354C65.0719 27.5354 64.5653 27.4784 64.1669 27.3643C63.7799 27.2387 63.501 27.0676 63.3302 26.8507C63.0342 26.497 62.8862 26.0405 62.8862 25.4813V18.9083H64.0815V25.4985Z" stroke="black" stroke-width="0.5"/>
</svg>
